<?xml version="1.0" encoding="utf-8"?>
<!-- Generator: Adobe Illustrator 21.0.0, SVG Export Plug-In . SVG Version: 6.00 Build 0)  -->
<svg version="1.1" id="Layer_1" xmlns="http://www.w3.org/2000/svg" xmlns:xlink="http://www.w3.org/1999/xlink" x="0px" y="0px"
	 viewBox="0 0 64 64" style="enable-background:new 0 0 64 64;" xml:space="preserve">
<style type="text/css">
	.st0{fill:#455A64;stroke:#37474F;stroke-linecap:round;stroke-linejoin:round;stroke-miterlimit:10;}
	.st1{fill:#78909C;stroke:#37474F;stroke-linecap:round;stroke-linejoin:round;stroke-miterlimit:10;}
	.st2{fill:#ECEFF1;stroke:#37474F;stroke-linecap:round;stroke-linejoin:round;stroke-miterlimit:10;}
	.st3{fill:none;stroke:#FFFFFF;stroke-linecap:round;stroke-linejoin:round;stroke-miterlimit:10;}
	.st4{fill:#FFCA28;stroke:#37474F;stroke-linecap:round;stroke-linejoin:round;stroke-miterlimit:10;}
	.st5{fill:none;stroke:#37474F;stroke-linecap:round;stroke-linejoin:round;stroke-miterlimit:10;}
	.st6{fill:#B0BEC5;}
	.st7{fill:#37474F;}
	.st8{fill:#455A64;}
	.st9{fill:#9CCC65;stroke:#37474F;stroke-linecap:round;stroke-linejoin:round;stroke-miterlimit:10;}
	.st10{fill:none;stroke:#C5E1A5;stroke-linecap:round;stroke-linejoin:round;stroke-miterlimit:10;}
	.st11{fill:#26C6DA;stroke:#37474F;stroke-linecap:round;stroke-linejoin:round;stroke-miterlimit:10;}
	.st12{fill:#EF5350;stroke:#37474F;stroke-linecap:round;stroke-linejoin:round;stroke-miterlimit:10;}
	.st13{fill:#B0BEC5;stroke:#37474F;stroke-linecap:round;stroke-linejoin:round;stroke-miterlimit:10;}
	.st14{fill:none;stroke:#EF9A9A;stroke-linecap:round;stroke-linejoin:round;stroke-miterlimit:10;}
	.st15{fill:none;stroke:#FFE082;stroke-linecap:round;stroke-linejoin:round;stroke-miterlimit:10;}
	.st16{fill:#D32F2F;stroke:#37474F;stroke-linecap:round;stroke-linejoin:round;stroke-miterlimit:10;}
	.st17{fill:#0097A7;stroke:#37474F;stroke-linecap:round;stroke-linejoin:round;stroke-miterlimit:10;}
	.st18{fill:#689F38;stroke:#37474F;stroke-linecap:round;stroke-linejoin:round;stroke-miterlimit:10;}
	.st19{fill:#FFA000;stroke:#37474F;stroke-linecap:round;stroke-linejoin:round;stroke-miterlimit:10;}
	.st20{fill:#FFA000;}
	.st21{fill:#FF6F00;}
	.st22{fill:#D32F2F;}
	.st23{fill:#0097A7;}
	.st24{fill:none;stroke:#80DEEA;stroke-linecap:round;stroke-linejoin:round;stroke-miterlimit:10;}
	.st25{fill:#689F38;}
	.st26{fill:none;stroke:#B0BEC5;stroke-linecap:round;stroke-linejoin:round;stroke-miterlimit:10;}
	.st27{fill:#78909C;stroke:#37474F;stroke-miterlimit:10;}
	.st28{fill:#78909C;}
	.st29{fill:#B71C1C;}
	.st30{fill:#F57F17;}
	.st31{fill:#006064;}
	.st32{fill:#26A69A;stroke:#37474F;stroke-linecap:round;stroke-linejoin:round;stroke-miterlimit:10;}
</style>
<g>
	<path class="st16" d="M53.5,47.5h-9c-5.5,0-10,4.5-10,10V61c0,1.4,1.1,2.5,2.5,2.5h24c1.4,0,2.5-1.1,2.5-2.5v-3.5
		C63.5,52,59,47.5,53.5,47.5z"/>
	<path class="st12" d="M53.5,43.5h-9c-5.5,0-10,4.5-10,10V57c0,1.4,1.1,2.5,2.5,2.5h24c1.4,0,2.5-1.1,2.5-2.5v-3.5
		C63.5,48,59,43.5,53.5,43.5z"/>
	<path class="st2" d="M54.1,43.5c-0.3,0-0.5,0-0.8,0h-8.8c-0.1,0-0.3,0-0.4,0c0,2.8,2.2,5,5,5C51.8,48.5,54.1,46.3,54.1,43.5z"/>
	<line class="st2" x1="57.5" y1="59.5" x2="57.5" y2="53.5"/>
	<circle class="st2" cx="49.1" cy="33.5" r="10"/>
	<path class="st5" d="M52.6,37c-2,2-5.1,2-7.1,0"/>
	<path class="st1" d="M57.3,27.7l-17.9,3.5c1-4.4,5-7.7,9.7-7.7C52.5,23.5,55.4,25.2,57.3,27.7z"/>
	<path class="st1" d="M55.6,25.9L55.6,25.9c2.1,1.8,3.5,4.5,3.5,7.6h0c-1.9,0-3.5-1.6-3.5-3.5V25.9z"/>
	<g>
		<polygon class="st1" points="26.1,42.5 15.1,44.5 4.1,42.5 5.1,33.5 25.1,33.5 		"/>
		<path class="st19" d="M19.5,47.5h-9c-5.5,0-10,4.5-10,10V61c0,1.4,1.1,2.5,2.5,2.5h24c1.4,0,2.5-1.1,2.5-2.5v-3.5
			C29.5,52,25,47.5,19.5,47.5z"/>
		<path class="st4" d="M19.5,43.5h-9c-5.5,0-10,4.5-10,10V57c0,1.4,1.1,2.5,2.5,2.5h24c1.4,0,2.5-1.1,2.5-2.5v-3.5
			C29.5,48,25,43.5,19.5,43.5z"/>
		<path class="st15" d="M2.5,53.5c0-3.7,2.6-6.9,6-7.7"/>
		<path class="st2" d="M20.1,43.5c-0.3,0-0.5,0-0.8,0h-8.8c-0.1,0-0.3,0-0.4,0c0,2.8,2.2,5,5,5C17.8,48.5,20.1,46.3,20.1,43.5z"/>
		<line class="st2" x1="6.5" y1="59.5" x2="6.5" y2="53.5"/>
		<circle class="st2" cx="15.1" cy="33.5" r="10"/>
		<path class="st5" d="M18.6,37c-2,2-5.1,2-7.1,0"/>
		<path class="st1" d="M15.1,23.5c-5.5,0-10,4.5-10,10h0.1c1.7,0,3.2-1,3.9-2.6l0.6-1.5l0.9,0.7c2.9,2.2,6.5,3.5,10.2,3.5h4.3
			C25.1,28,20.6,23.5,15.1,23.5z"/>
	</g>
	<path class="st13" d="M40.5,63.5h-17c-1.4,0-2.5-1.1-2.5-2.5v-3c0-4.1,3.4-7.5,7.5-7.5h7c4.1,0,7.5,3.4,7.5,7.5v3
		C43,62.4,41.9,63.5,40.5,63.5z"/>
	<circle class="st2" cx="32" cy="37.5" r="9"/>
	<path class="st5" d="M35.2,40.7c-1.8,1.8-4.6,1.8-6.4,0"/>
	<path class="st2" d="M40.5,59.5h-17c-1.4,0-2.5-1.1-2.5-2.5v-3c0-4.1,3.4-7.5,7.5-7.5h7c4.1,0,7.5,3.4,7.5,7.5v3
		C43,58.4,41.9,59.5,40.5,59.5z"/>
	<path class="st2" d="M36,46.5c-0.2,0-0.4,0-0.7,0h-7c-0.1,0-0.2,0-0.3,0c0,2.2,1.8,4,4,4C34.2,50.5,36,48.7,36,46.5z"/>
	<line class="st5" x1="38" y1="59.5" x2="38" y2="54.5"/>
	<line class="st5" x1="26" y1="59.5" x2="26" y2="54.5"/>
	<path class="st1" d="M32,28.5c-5,0-9,4-9,9l4-4l5,2l5-2l4,4C41,32.5,37,28.5,32,28.5z"/>
	<path class="st17" d="M3,9.5V13c0,2.8,2.2,5,5,5h3l3.2,3.5c0.4,0.5,1.2,0.5,1.6,0L19,18h7.5l3.2,3.5c0.4,0.5,1.2,0.5,1.6,0l3.2-3.5
		H42l3.2,3.5c0.4,0.5,1.2,0.5,1.6,0L50,18h3c2.8,0,5-2.2,5-5V9.5c0-2.8-2.2-5-5-5H8C5.2,4.5,3,6.7,3,9.5z"/>
	<path class="st11" d="M3,5.5V9c0,2.8,2.2,5,5,5h3l3.2,3.5c0.4,0.5,1.2,0.5,1.6,0L19,14h7.5l3.2,3.5c0.4,0.5,1.2,0.5,1.6,0l3.2-3.5
		H42l3.2,3.5c0.4,0.5,1.2,0.5,1.6,0L50,14h3c2.8,0,5-2.2,5-5V5.5c0-2.8-2.2-5-5-5H8C5.2,0.5,3,2.7,3,5.5z"/>
	<path class="st24" d="M5,7.5v-2c0-1.7,1.3-3,3-3h2"/>
	<line class="st5" x1="12.5" y1="5" x2="48.5" y2="5"/>
	<line class="st5" x1="15.5" y1="9" x2="45.5" y2="9"/>
</g>
</svg>
