<?xml version="1.0" encoding="iso-8859-1"?>
<!-- Generator: Adobe Illustrator 19.0.0, SVG Export Plug-In . SVG Version: 6.00 Build 0)  -->
<svg version="1.1" id="Layer_1" xmlns="http://www.w3.org/2000/svg" xmlns:xlink="http://www.w3.org/1999/xlink" x="0px" y="0px"
	 viewBox="0 0 512.001 512.001" style="enable-background:new 0 0 512.001 512.001;" xml:space="preserve">
<path style="fill:#EEBF00;" d="M151.769,255.837c-34.809,0-63.028-28.219-63.028-63.028s28.219-63.028,63.028-63.028h25.188v24.55
	h-25.188c-21.251,0-38.478,17.227-38.478,38.478s17.227,38.478,38.478,38.478h25.188v24.55H151.769z"/>
<path style="fill:#CCA400;" d="M358.688,255.837c34.809,0,63.028-28.219,63.028-63.028s-28.219-63.028-63.028-63.028h-20.601v24.55
	h20.601c21.251,0,38.478,17.227,38.478,38.478s-17.227,38.478-38.478,38.478h-20.601v24.55H358.688z"/>
<path style="fill:#FFCD00;" d="M258.838,70.531h-7.221H161.71c-5.49,0-9.941,4.384-9.941,9.79v171.076
	c4.334,40.438,32.787,74.553,71.28,86.02c2.949,0.879,4.952,3.574,4.941,6.608l-0.204,55.571
	c-0.029,7.653-6.352,13.834-14.123,13.805l-15.982-0.058c-7.293-0.027-13.282,5.828-13.309,13.009l0,0
	c-0.028,7.182,5.917,13.08,13.21,13.108l54.035,0.199h6.01L258.838,70.531z"/>
<path style="fill:#FFE477;" d="M204.871,314.356c-1.344,0-2.707-0.353-3.944-1.095c-6.622-3.973-12.656-8.88-17.936-14.585
	c-2.88-3.114-2.692-7.973,0.421-10.853c3.115-2.88,7.97-2.691,10.853,0.421c4.289,4.636,9.19,8.622,14.564,11.845
	c3.637,2.182,4.817,6.899,2.635,10.536C210.025,313.026,207.48,314.356,204.871,314.356z M176.957,284.416
	c-2.792,0-5.485-1.528-6.844-4.185c-4.564-8.926-7.417-18.49-8.482-28.426c-0.029-0.272-0.044-0.545-0.044-0.818V125.683
	c0-4.241,3.437-7.68,7.68-7.68c4.242,0,7.68,3.438,7.68,7.68v124.882c0.897,7.919,3.198,15.547,6.843,22.675
	c1.931,3.776,0.435,8.404-3.342,10.334C179.328,284.145,178.134,284.416,176.957,284.416z"/>
<g>
	<path style="fill:#EEBF00;" d="M254.742,439.657l58.131-0.199c7.293-0.027,13.238-5.925,13.21-13.108l0,0
		c-0.028-7.182-6.017-13.036-13.309-13.009l-15.982,0.058c-7.771,0.029-14.094-6.152-14.123-13.805l-0.204-55.571
		c-0.011-3.034,1.992-5.729,4.941-6.608c38.494-11.468,66.946-45.582,71.28-86.02V80.321c0-5.406-4.451-9.79-9.941-9.79h-94.004
		L254.742,439.657z"/>
	<path style="fill:#EEBF00;" d="M303.982,201.208c-0.1,26.356-21.877,47.642-48.64,47.544s-48.377-21.544-48.277-47.9
		s21.877-47.642,48.64-47.544C282.468,153.406,304.082,174.852,303.982,201.208z"/>
</g>
<g>
	<path style="fill:#4BCDB2;" d="M302.602,191.805c-0.1,26.356-21.877,47.642-48.64,47.544c-26.763-0.098-48.377-21.544-48.277-47.9
		s21.877-47.642,48.64-47.544C281.088,144.003,302.702,165.449,302.602,191.805z"/>
	<path style="fill:#4BCDB2;" d="M283.23,229.945v73.054c0,2.761-2.981,4.53-5.46,3.243l-20.866-10.84
		c-1.086-0.564-2.387-0.564-3.473,0l-20.866,10.84c-2.479,1.288-5.46-0.482-5.46-3.243v-73.054"/>
</g>
<path style="fill:#AA6100;" d="M139.851,310.255c31.113,35.174,28.679,91.128,25.5,116.989c-1.015,8.254-8.008,14.441-16.325,14.44
	c-26.055-0.001-81.889-4.416-113.002-39.59s-28.68-91.127-25.5-116.988c1.015-8.254,8.008-14.441,16.325-14.44
	C52.905,270.667,108.739,275.081,139.851,310.255z"/>
<g style="opacity:0.29;">
	<path style="fill:#663A00;" d="M159.927,437.559c-2.915,2.578-6.743,4.124-10.9,4.124c-26.055-0.001-81.889-4.416-113.002-39.59
		s-28.68-91.127-25.5-116.988c0.547-4.448,2.83-8.296,6.122-10.899L159.927,437.559z"/>
</g>
<rect x="152.03" y="93.86" style="fill:#DDB200;" width="207.09" height="15.359"/>
<circle style="fill:#4BCDB2;" cx="421.71" cy="360.2" r="83.63"/>
<g style="opacity:0.24;">
	<path style="fill:#5D5D5D;" d="M481.326,301.549c32.659,32.659,32.659,85.61,0,118.269s-85.61,32.659-118.269,0L481.326,301.549z"
		/>
</g>
<rect x="152.03" y="93.86" style="fill:#EEBF00;" width="103.14" height="15.359"/>
<rect x="227.1" y="232.6" style="fill:#328777;" width="56.12" height="23.23"/>
<g>
	<path style="fill:#663A00;" d="M26.848,270.666c-8.317,0-15.31,6.186-16.325,14.44c-1.393,11.327-2.641,28.427-0.992,47.026
		l64.111-56.709C55.386,271.514,38.261,270.666,26.848,270.666z"/>
	<path style="fill:#663A00;" d="M102.231,436.928c18.258,3.907,35.383,4.755,46.794,4.756c8.317,0,15.31-6.186,16.325-14.44
		c1.393-11.327,2.642-28.427,0.992-47.025L102.231,436.928z"/>
</g>
<g>
	<path style="fill:#50000F;" d="M105.115,385.61l7.32,8.276c1.516,1.716,3.631,2.592,5.755,2.592c1.808,0,3.624-0.635,5.085-1.927
		c3.177-2.811,3.475-7.663,0.664-10.841l-7.319-8.275l7.724-6.833c3.177-2.81,3.475-7.663,0.664-10.841
		c-2.809-3.175-7.662-3.475-10.84-0.664l-7.725,6.833l-6.884-7.782l7.724-6.832c3.177-2.81,3.475-7.663,0.664-10.841
		c-2.809-3.176-7.661-3.475-10.84-0.664l-7.725,6.833l-6.884-7.783l7.724-6.832c3.177-2.81,3.475-7.663,0.664-10.841
		c-2.809-3.176-7.661-3.475-10.84-0.664l-7.725,6.833L65,317.084c-2.808-3.176-7.662-3.475-10.84-0.664
		c-3.177,2.811-3.475,7.663-0.664,10.841l7.319,8.275l-9.287,8.215c-3.177,2.81-3.475,7.663-0.664,10.841
		c1.516,1.715,3.631,2.592,5.755,2.592c1.808,0,3.624-0.635,5.085-1.927l9.287-8.215l6.884,7.783l-9.287,8.215
		c-3.177,2.81-3.475,7.663-0.664,10.841c1.516,1.715,3.631,2.592,5.755,2.592c1.808,0,3.624-0.635,5.085-1.927l9.287-8.215
		l6.884,7.783l-9.287,8.214c-3.177,2.81-3.475,7.663-0.664,10.841c1.516,1.715,3.631,2.592,5.755,2.592
		c1.808,0,3.624-0.635,5.085-1.927L105.115,385.61z"/>
	<path style="fill:#50000F;" d="M240.02,192.922c0.797,0.785,1.163,1.898,0.988,2.995l-1.657,10.356
		c-0.448,2.802,2.517,4.923,5.084,3.638l9.489-4.752c1.005-0.503,2.193-0.503,3.198,0l9.489,4.752
		c2.567,1.285,5.532-0.837,5.084-3.638l-1.657-10.356c-0.175-1.097,0.191-2.21,0.988-2.995l7.521-7.42
		c2.035-2.007,0.902-5.44-1.941-5.886l-10.513-1.649c-1.113-0.175-2.075-0.862-2.588-1.851l-4.841-9.337
		c-1.31-2.526-4.974-2.526-6.284,0l-4.84,9.337c-0.513,0.989-1.475,1.676-2.588,1.851l-10.513,1.649
		c-2.845,0.446-3.977,3.879-1.941,5.886L240.02,192.922z"/>
	<path style="fill:#50000F;" d="M311.722,404.481l-15.981,0.058c-0.009,0-0.016,0-0.025,0c-3.513,0-6.378-2.755-6.39-6.153
		l-0.201-54.955c20.15-6.12,37.987-18.018,51.617-34.435c11.374-13.7,19.133-29.75,22.785-46.922
		c36.254-2.993,64.845-33.433,64.845-70.445c0-36.393-27.639-66.443-63.029-70.284V79.14c0-9.633-7.905-17.47-17.62-17.47h-89.908
		h-97.129c-9.715,0-17.62,7.836-17.62,17.47v42.204c-35.389,3.841-63.029,33.891-63.029,70.284
		c0,37.012,28.591,67.453,64.845,70.445c3.652,17.173,11.412,33.222,22.785,46.922c13.63,16.417,31.466,28.315,51.617,34.435
		l-0.201,54.954c-0.013,3.398-2.878,6.154-6.39,6.154c-0.008,0-0.017,0-0.025,0l-15.981-0.058c-0.026,0-0.052,0-0.079,0
		c-11.509,0-20.895,9.252-20.938,20.66c-0.021,5.548,2.156,10.774,6.13,14.718c3.944,3.911,9.175,6.078,14.732,6.098l54.062,0.199
		h14.201v-0.026l47.082-0.173c5.557-0.02,10.787-2.186,14.732-6.098c3.974-3.943,6.152-9.17,6.13-14.718
		C332.696,413.706,323.289,404.452,311.722,404.481z M365.342,161.798c13.279,3.421,23.119,15.497,23.119,29.829
		s-9.84,26.408-23.119,29.829V161.798z M413.012,191.627c0,27.913-20.774,51.052-47.67,54.804v-9.297
		c21.808-3.669,38.478-22.672,38.478-45.506s-16.671-41.838-38.478-45.506v-9.297C392.238,140.575,413.012,163.715,413.012,191.627z
		 M160.686,77.029h97.129h89.908c1.247,0,2.261,0.947,2.261,2.11v13.539H158.425V79.14
		C158.425,77.976,159.438,77.029,160.686,77.029z M143.066,221.456c-13.279-3.421-23.119-15.497-23.119-29.829
		s9.84-26.409,23.119-29.829V221.456z M95.396,191.627c0-27.913,20.774-51.052,47.67-54.804v9.297
		c-21.808,3.669-38.478,22.672-38.478,45.506s16.671,41.838,38.478,45.506v9.297C116.169,242.679,95.396,219.54,95.396,191.627z
		 M315.79,428.956c-1.061,1.054-2.471,1.636-3.969,1.642l-54.034,0.199h-7.166l-54.035-0.199c-1.498-0.005-2.908-0.589-3.969-1.642
		c-1.031-1.023-1.595-2.356-1.59-3.756c0.011-2.909,2.564-5.358,5.581-5.358c0.007,0,0.014,0,0.021,0l15.981,0.058
		c0.028,0,0.054,0,0.082,0c11.955-0.001,21.704-9.609,21.749-21.457l0.203-55.569c0.025-6.405-4.263-12.161-10.427-13.997
		c-35.287-10.513-61.682-42.261-65.794-79.08v-141.76h191.558v141.76c-4.112,36.818-30.507,68.567-65.794,79.08
		c-6.164,1.836-10.451,7.593-10.427,13.995l0.203,55.572c0.045,11.848,9.793,21.456,21.749,21.456c0.027,0,0.055,0,0.082,0
		l15.981-0.058c0.007,0,0.014,0,0.021,0c3.016,0,5.569,2.449,5.581,5.358C317.385,426.6,316.82,427.933,315.79,428.956z"/>
	<path style="fill:#50000F;" d="M284.426,311.502c3.419-2.077,5.46-5.696,5.46-9.683v-69.237
		c12.599-10.123,20.687-25.519,20.753-42.765c0.056-14.821-5.745-28.77-16.336-39.278c-10.56-10.476-24.62-16.277-39.593-16.332
		c-0.072,0-0.14,0-0.212,0c-30.856,0-56.019,24.718-56.135,55.195c-0.056,14.821,5.745,28.77,16.335,39.278
		c1.19,1.181,2.43,2.293,3.705,3.352v69.786c0,3.986,2.041,7.606,5.461,9.684c3.445,2.093,7.639,2.233,11.218,0.375l19.063-9.903
		l19.063,9.903c1.673,0.869,3.479,1.301,5.283,1.301C280.543,313.177,282.591,312.616,284.426,311.502z M213.721,189.459
		c0.084-22.03,18.361-39.894,40.777-39.894c0.051,0,0.104,0,0.155,0c10.914,0.04,21.153,4.258,28.83,11.876
		c7.647,7.586,11.836,17.643,11.796,28.316c-0.084,22.03-18.36,39.894-40.776,39.894c-0.051,0-0.105,0-0.156,0
		c-10.914-0.04-21.154-4.258-28.831-11.876C217.869,210.189,213.68,200.134,213.721,189.459z M259.422,287.407
		c-3.303-1.716-7.25-1.717-10.555-0.001l-15.106,7.848v-54.146c6.45,2.528,13.383,3.877,20.53,3.903c0.072,0,0.141,0,0.212,0
		c7.051,0,13.798-1.303,20.023-3.659v53.901L259.422,287.407z"/>
	<path style="fill:#50000F;" d="M25.825,261.804L25.825,261.804c-12.168,0-22.463,9.107-23.948,21.182
		c-3.711,30.19-5.09,86.318,27.37,123.015c32.46,36.696,88.336,42.178,118.755,42.181c12.168,0,22.463-9.107,23.948-21.183
		c3.711-30.191,5.09-86.318-27.37-123.014C112.118,267.288,56.243,261.805,25.825,261.804z M17.123,284.862
		c0.539-4.389,4.281-7.698,8.703-7.698c7.165,0,17.699,0.376,29.673,1.969l-40.043,35.419
		C15.335,302.475,16.248,291.972,17.123,284.862z M40.753,395.825c-15.271-17.264-21.788-40.391-24.152-61.781l58.104-51.396
		c20.941,4.958,43.099,14.248,58.37,31.513c0.001,0,0.001,0,0.001,0c15.271,17.264,21.788,40.391,24.152,61.78l-58.104,51.396
		C78.182,422.38,56.024,413.09,40.753,395.825z M156.705,425.125c-0.539,4.389-4.281,7.698-8.703,7.698
		c-7.165,0-17.7-0.376-29.673-1.969l40.044-35.42C158.492,407.512,157.579,418.014,156.705,425.125z"/>
	<path style="fill:#50000F;" d="M420.692,267.713c-50.349,0-91.31,40.961-91.31,91.309s40.961,91.309,91.31,91.309
		c50.348,0,91.309-40.961,91.309-91.309C512,308.674,471.039,267.713,420.692,267.713z M449.764,429.176l-24.558-17.843
		c-2.692-1.956-6.336-1.956-9.027,0l-24.559,17.843c-19.244-8.004-34.503-23.703-41.933-43.236l16.278-22.404
		c1.956-2.691,1.956-6.336,0-9.027l-16.278-22.404c7.55-19.848,23.188-35.727,42.873-43.607l23.619,17.16
		c1.345,0.978,2.93,1.466,4.514,1.466s3.168-0.489,4.514-1.467l23.618-17.16c19.369,7.754,34.816,23.256,42.499,42.661
		l-16.966,23.351c-1.956,2.691-1.956,6.336,0,9.027l16.966,23.351C483.764,405.978,468.695,421.301,449.764,429.176z"/>
	<path style="fill:#50000F;" d="M450.493,344.078l-25.287-18.373c-2.692-1.956-6.336-1.956-9.027,0l-25.288,18.373
		c-2.692,1.956-3.818,5.422-2.79,8.587l9.66,29.728c1.028,3.164,3.977,5.306,7.304,5.306h2.222c0.498,0.074,1.004,0.116,1.517,0.116
		h25.828c0.514,0,1.02-0.043,1.517-0.116h0.175c3.105,0,5.858-1.878,7.051-4.698c0.456-0.72,0.83-1.501,1.103-2.339l7.981-24.564
		c0.249-0.766,0.4-1.545,0.467-2.323l0.361-1.111C454.311,349.5,453.185,346.032,450.493,344.078z"/>
</g>
<g>
</g>
<g>
</g>
<g>
</g>
<g>
</g>
<g>
</g>
<g>
</g>
<g>
</g>
<g>
</g>
<g>
</g>
<g>
</g>
<g>
</g>
<g>
</g>
<g>
</g>
<g>
</g>
<g>
</g>
</svg>
